<?xml version="1.0" encoding="UTF-8" standalone="no"?> <svg width="64" height="64" viewBox="0 0 64 64" fill="none" xmlns="http://www.w3.org/2000/svg">
<path d="M36.4499 29.78C43.5081 29.78 49.2299 24.0582 49.2299 17C49.2299 9.94183 43.5081 4.22003 36.4499 4.22003C29.3917 4.22003 23.6699 9.94183 23.6699 17C23.6699 24.0582 29.3917 29.78 36.4499 29.78Z" fill="#78B9EB"/>
<path d="M50.92 41.49L60.92 18.06C60.9844 17.908 61.0101 17.7424 60.995 17.5781C60.9798 17.4137 60.9242 17.2557 60.8331 17.1181C60.742 16.9804 60.6182 16.8675 60.4729 16.7893C60.3275 16.7111 60.1651 16.6701 60 16.67H54.42C54.1548 16.67 53.9004 16.7753 53.7129 16.9629C53.5254 17.1504 53.42 17.4048 53.42 17.67C53.42 17.9352 53.5254 18.1896 53.7129 18.3771C53.9004 18.5646 54.1548 18.67 54.42 18.67H58.49L49.34 40.1H18.91L14.14 18.67H18.46C18.7252 18.67 18.9796 18.5646 19.1671 18.3771C19.3546 18.1896 19.46 17.9352 19.46 17.67C19.46 17.4048 19.3546 17.1504 19.1671 16.9629C18.9796 16.7753 18.7252 16.67 18.46 16.67H13.69L13 13.46C12.9492 13.2344 12.8218 13.0334 12.6395 12.8912C12.4571 12.749 12.2312 12.6743 12 12.68H4C3.73478 12.68 3.48043 12.7853 3.29289 12.9729C3.10536 13.1604 3 13.4148 3 13.68C3 13.9452 3.10536 14.1996 3.29289 14.3871C3.48043 14.5746 3.73478 14.68 4 14.68H11.2L18.88 49.18C18.9308 49.4056 19.0582 49.6066 19.2405 49.7488C19.4229 49.891 19.6488 49.9656 19.88 49.96H50C50.2652 49.96 50.5196 49.8546 50.7071 49.6671C50.8946 49.4796 51 49.2252 51 48.96C51 48.6948 50.8946 48.4404 50.7071 48.2529C50.5196 48.0653 50.2652 47.96 50 47.96H20.66L19.35 42.1H50C50.1963 42.0998 50.3882 42.0419 50.5518 41.9334C50.7154 41.825 50.8434 41.6707 50.92 41.49Z" fill="#006DF0"/>
<path d="M25.2099 51.93C24.3116 51.93 23.4334 52.1965 22.6866 52.6958C21.9398 53.1951 21.3579 53.9048 21.0146 54.7349C20.6712 55.5651 20.5819 56.4785 20.7579 57.3594C20.9339 58.2403 21.3673 59.0493 22.0032 59.6838C22.6391 60.3183 23.449 60.7499 24.3303 60.924C25.2117 61.098 26.1248 61.0067 26.9542 60.6615C27.7836 60.3164 28.492 59.7329 28.9897 58.985C29.4873 58.2371 29.7519 57.3584 29.7499 56.46C29.7499 55.8643 29.6324 55.2744 29.4041 54.7241C29.1759 54.1739 28.8413 53.674 28.4196 53.2533C27.9979 52.8325 27.4973 52.499 26.9465 52.272C26.3958 52.0449 25.8056 51.9287 25.2099 51.93V51.93ZM25.2099 59C24.7075 59 24.2165 58.851 23.7988 58.5719C23.3811 58.2928 23.0555 57.8961 22.8633 57.432C22.671 56.9679 22.6207 56.4572 22.7187 55.9645C22.8167 55.4718 23.0586 55.0192 23.4139 54.664C23.7691 54.3087 24.2217 54.0668 24.7144 53.9688C25.2071 53.8708 25.7178 53.9211 26.1819 54.1133C26.6461 54.3056 27.0427 54.6312 27.3218 55.0489C27.6009 55.4666 27.7499 55.9576 27.7499 56.46C27.7499 57.1337 27.4823 57.7797 27.006 58.2561C26.5296 58.7324 25.8836 59 25.2099 59V59Z" fill="#006DF0"/>
<path d="M43.4999 51.93C42.5999 51.9221 41.7178 52.1818 40.9658 52.6763C40.2137 53.1707 39.6256 53.8776 39.2761 54.707C38.9267 55.5364 38.8316 56.451 39.0031 57.3346C39.1745 58.2182 39.6047 59.0309 40.239 59.6694C40.8733 60.3079 41.6831 60.7435 42.5655 60.9208C43.4479 61.0982 44.3631 61.0092 45.1949 60.6652C46.0266 60.3213 46.7373 59.7379 47.2368 58.9891C47.7362 58.2403 48.0019 57.36 47.9999 56.46C47.9999 55.2637 47.5268 54.116 46.6837 53.2673C45.8407 52.4187 44.6961 51.9379 43.4999 51.93V51.93ZM43.4999 59C42.9959 59.0079 42.501 58.8657 42.078 58.5915C41.6551 58.3173 41.3233 57.9234 41.1249 57.46C40.9265 56.9967 40.8705 56.4847 40.9639 55.9894C41.0574 55.4941 41.2961 55.0378 41.6497 54.6786C42.0032 54.3193 42.4557 54.0734 42.9495 53.9721C43.4433 53.8708 43.956 53.9187 44.4225 54.1097C44.8889 54.3008 45.288 54.6262 45.5689 55.0448C45.8498 55.4633 45.9999 55.9559 45.9999 56.46C46 57.1268 45.7379 57.7668 45.2702 58.242C44.8024 58.7172 44.1666 58.9895 43.4999 59V59Z" fill="#006DF0"/>
<path d="M36.45 31C39.2189 31 41.9256 30.1789 44.2279 28.6406C46.5302 27.1022 48.3246 24.9157 49.3843 22.3576C50.4439 19.7994 50.7211 16.9845 50.1809 14.2687C49.6407 11.553 48.3074 9.05845 46.3494 7.10051C44.3915 5.14258 41.8969 3.80921 39.1812 3.26901C36.4655 2.72882 33.6505 3.00607 31.0924 4.06569C28.5342 5.12532 26.3477 6.91973 24.8094 9.22202C23.271 11.5243 22.45 14.2311 22.45 17C22.45 20.713 23.9249 24.274 26.5505 26.8995C29.176 29.525 32.7369 31 36.45 31V31ZM36.45 5.00001C38.8233 5.00001 41.1434 5.70379 43.1168 7.02237C45.0902 8.34095 46.6283 10.2151 47.5365 12.4078C48.4448 14.6005 48.6824 17.0133 48.2194 19.3411C47.7564 21.6689 46.6135 23.8071 44.9352 25.4853C43.257 27.1635 41.1188 28.3064 38.791 28.7694C36.4633 29.2325 34.0505 28.9948 31.8577 28.0866C29.665 27.1783 27.7909 25.6402 26.4723 23.6668C25.1537 21.6935 24.45 19.3734 24.45 17C24.45 13.8174 25.7142 10.7652 27.9647 8.51473C30.2151 6.26429 33.2674 5.00001 36.45 5.00001V5.00001Z" fill="#006DF0"/>
<path d="M35.7301 27.15C35.823 27.2437 35.9336 27.3181 36.0555 27.3689C36.1773 27.4196 36.3081 27.4458 36.4401 27.4458C36.5721 27.4458 36.7028 27.4196 36.8246 27.3689C36.9465 27.3181 37.0571 27.2437 37.1501 27.15L43.2201 21.08C43.4084 20.893 43.5147 20.6389 43.5156 20.3735C43.5166 20.1082 43.412 19.8533 43.2251 19.665C43.0381 19.4767 42.784 19.3704 42.5186 19.3694C42.2532 19.3685 41.9984 19.473 41.8101 19.66L37.4501 24V7.54999C37.4501 7.28477 37.3447 7.03042 37.1572 6.84288C36.9696 6.65534 36.7153 6.54999 36.4501 6.54999C36.1849 6.54999 35.9305 6.65534 35.743 6.84288C35.5554 7.03042 35.4501 7.28477 35.4501 7.54999V24L31.0801 19.63C30.8927 19.4437 30.6393 19.3392 30.3751 19.3392C30.1109 19.3392 29.8574 19.4437 29.6701 19.63C29.5763 19.7229 29.5019 19.8336 29.4512 19.9554C29.4004 20.0773 29.3743 20.208 29.3743 20.34C29.3743 20.472 29.4004 20.6027 29.4512 20.7246C29.5019 20.8464 29.5763 20.957 29.6701 21.05L35.7301 27.15Z" fill="#006DF0"/>
</svg>
